<svg xmlns="http://www.w3.org/2000/svg" viewBox="0 0 108.56 141.8"><path fill="#ff3e00" d="M50.84 7.2c-14.3 0-21.14 20.54-23.28 30.98l-10.02 3.56c-3.1 1.12-3.2 1.23-3.6 4.6-.31 2.53-8.43 74.65-8.43 74.65l63.26 13.62 34.28-8.52L90.95 32c-.09-.64-.57-1-.98-1.03l-8.93-.76-6.57-7.5c-.65-.75-1.92-.52-2.41-.36l-3.31 1.18c-1.98-6.54-5.47-12.55-11.61-12.55a8 8 0 0 0-.52.02c-1.75-2.65-3.91-3.8-5.78-3.8zm-.4 4.4c.62 0 1.25.25 1.84.72-4.58 2.47-9.5 8.72-11.57 21.18l-8.74 3.1c2.43-9.5 8.2-25 18.48-25zm8.18 3.82c3.17.46 5.27 4.6 6.63 9.35l-5.35 1.9v-1.32c0-4.07-.49-7.34-1.28-9.93zm-3.92.8c.88 2.54 1.45 6.17 1.45 11.08v.7l-11.06 3.94c2.13-9.44 6.12-14 9.6-15.71zM42.75 47.8c3.96-.13 7.95 2.92 10.38 8.6v.04a11.38 18.52 0 0 1 1.95 14 10.75 17.49 0 0 1-1.6 6.49 11.24 18.3 0 0 1 1.1 11.74 10.7 17.41 0 0 1-4.81 11.6l-9.3 9.61c-5.3 5.5-12.63 2.93-16.34-5.7a11.36 18.5 0 0 1-1.94-14 10.68 17.38 0 0 1 1.6-6.5 11.25 18.3 0 0 1-1.11-11.74 10.67 17.35 0 0 1 4.82-11.6l9.3-9.65c1.82-1.9 3.88-2.83 5.95-2.9zm.6 7.4a7.39 12.02 0 0 0-1.98.39 6.8 11.06 0 0 0-1.87 1.34l-9.32 9.65a6.42 10.45 0 0 0-2.9 7 6.83 11.12 0 0 0 1.16 8.41 7.4 12.03 0 0 0 7.92 4.79 6.81 11.09 0 0 0 1.89-1.35l3.56-3.69a2.04 3.32 0 0 1 .57-.4 2.23 3.63 0 0 1 2.4 1.44 2.06 3.35 0 0 1 .35 2.53 1.93 3.15 0 0 1-.87 2.12l-9.3 9.64a2.09 3.4 0 0 1-.56.41 2.23 3.63 0 0 1-2.4-1.44 2.1 3.42 0 0 1-.38-2.23l.03-.58-.36-.17a12.05 19.6 0 0 1-3.62-2.94l-.48-.58-.18.87a6.06 9.87 0 0 0-.22 1.4 6.83 11.1 0 0 0 1.17 8.41 7.4 12.03 0 0 0 7.93 4.8 6.84 11.13 0 0 0 1.9-1.36l9.3-9.65a6.42 10.45 0 0 0 2.9-7 6.83 11.12 0 0 0-1.17-8.41 7.38 12.01 0 0 0-7.93-4.78 6.64 10.8 0 0 0-1.9 1.35l-3.56 3.68a2.14 3.48 0 0 1-.57.4 2.23 3.63 0 0 1-2.37-1.44 2.08 3.39 0 0 1-.36-2.54 1.94 3.16 0 0 1 .88-2.1l9.3-9.63a2.04 3.32 0 0 1 .57-.4 2.22 3.62 0 0 1 2.38 1.39 2.09 3.4 0 0 1 .38 2.25l-.04.58.36.17a12.05 19.6 0 0 1 3.64 2.96l.47.58.18-.87a7.19 11.7 0 0 0 .22-1.41 6.83 11.1 0 0 0-1.17-8.42 7.39 12.02 0 0 0-5.95-5.17z"/><path fill="#b12b00" d="m89.98 30.97-8.93-.76-6.57-7.5a1.54 1.54 0 0 0-.92-.48L68.78 134.6l34.27-8.52L90.95 32c-.08-.64-.57-1-.97-1.03"/></svg>