<svg width="108.56mm" height="141.8mm" version="1.1" viewBox="0 0 108.56 141.8" xmlns="http://www.w3.org/2000/svg"><defs><meshgradient x="22.976046" y="13.57679" gradientUnits="userSpaceOnUse"><meshrow><meshpatch><stop style="stop-color:#fff" path="c 31.0652,0  93.3875,-36.7896  121.885,-9.49351"/><stop path="c 0.00132379,37.3188  12.5898,93.658  -14.3445,141.793"/><stop style="stop-color:#fff" path="c -31.0638,0.00133131  -76.4735,-20.3417  -107.537,-20.3417"/><stop path="c 0,-37.3188  0,-74.6376  -0.0031,-111.957"/></meshpatch></meshrow></meshgradient></defs><g transform="translate(-57.394 -28.771)"><path transform="matrix(.26458 0 0 .26458 57.394 28.771)" d="m192.15 27.203c-54.069 0-79.901 77.637-88 117.09-21.01 7.4777-35.935 12.793-37.842 13.48-11.727 4.2254-12.099 4.651-13.639 17.344-1.1589 9.6095-31.844 282.18-31.844 282.18l239.11 51.457 129.55-32.191s-45.48-353.18-45.766-355.6h-.00195c-.29027-2.4202-2.1347-3.7607-3.6602-3.9082-1.5226-.14589-33.746-2.8887-33.746-2.8887s-22.38-25.519-24.836-28.344c-2.4578-2.823-7.2579-1.9659-9.1211-1.3359-.27439.092825-4.8889 1.7298-12.523 4.4434-7.4757-24.709-20.67-47.416-43.881-47.416-.64078 0-1.2994.029179-1.959.072266-6.6011-10.027-14.779-14.383-21.842-14.383zm-1.4863 16.658c2.3336 0 4.6856.91078 6.9356 2.6895-17.328 9.3658-35.902 32.953-43.746 80.059l-33.029 11.75c9.1874-35.93 31.004-94.498 69.84-94.498zm30.902 14.422c11.96 1.724 19.925 17.355 25.051 35.342h-.00196l-20.23 7.1914c.00755-1.6378.01367-3.2496.01367-5.0117 0-15.357-1.8548-27.72-4.832-37.521zm-14.838 3.0449c3.3251 9.5697 5.4883 23.303 5.4883 41.836 0 .94818-.00807 1.8145-.01563 2.6914-13.158 4.6812-27.456 9.7643-41.785 14.863 8.0458-35.666 23.128-52.893 36.312-59.391zm-45.139 119.29c14.944-.46951 30.033 11.059 39.234 32.48v.17578a43.006 69.98 0 017.3477 52.914 40.62 66.097 0 01-6.0391 24.525 42.494 69.146 0 014.1914 44.379 40.445 65.812 0 01-18.227 43.875l-35.16 36.305c-20.02 20.753-47.712 11.078-61.732-21.564a42.952 69.892 0 01-7.3457-52.912 40.364 65.68 0 016.0254-24.525 42.507 69.168 0 01-4.1797-44.4 40.31 65.592 0 0118.227-43.875l35.16-36.459c6.8819-7.1337 14.67-10.672 22.498-10.918zm2.2734 27.979a27.92 45.432 0 00-7.4883 1.4531 25.682 41.79 0 00-7.0898 5.0898l-35.215 36.459a24.267 39.487 0 00-10.961 26.457 25.831 42.032 0 004.3828 31.809 27.934 45.454 0 0029.928 18.076 25.75 41.9 0 007.1328-5.0898l13.48-13.93a7.7114 12.548 0 012.1582-1.5352 8.426 13.711 0 019.0332 5.4414 7.7788 12.658 0 011.3477 9.5859 7.307 11.89 0 01-3.3027 7.9844l-35.107 36.461a7.8867 12.833 0 01-2.1562 1.5352 8.426 13.711 0 01-9.0332-5.4414 7.9541 12.943 0 01-1.4688-8.4453l.12109-2.1934-1.3477-.63671a45.541 74.104 0 01-13.711-11.1l-1.8066-2.1934-.66016 3.2891a22.919 37.293 0 00-.83594 5.2871 25.804 41.988 0 004.4082 31.809 27.947 45.476 0 0029.982 18.1 25.858 42.076 0 007.1465-5.1113l35.172-36.461a24.267 39.487 0 0010.961-26.455 25.831 42.032 0 00-4.4219-31.809 27.907 45.41 0 00-29.969-18.076 25.089 40.825 0 00-7.1465 5.1113l-13.48 13.908a8.0889 13.162 0 01-2.1582 1.5352 8.426 13.711 0 01-8.9648-5.4414 7.8732 12.811 0 01-1.3477-9.6074 7.3474 11.956 0 013.3027-7.9629l35.174-36.395a7.7114 12.548 0 012.1562-1.5352 8.399 13.667 0 018.9785 5.2871 7.9002 12.855 0 011.4297 8.5117l-.1211 2.1934 1.3477.63477a45.541 74.104 0 0113.752 11.189l1.793 2.1934.67383-3.291a27.165 44.203 0 00.83594-5.3301 25.804 41.988 0 00-4.4219-31.809 27.92 45.432 0 00-22.482-19.553z" style="fill:#ff3e00;stroke-width:1.5467"/><path d="m147.37 59.742c-.40285-.0386-8.9287-.76446-8.9287-.76446s-5.9212-6.7521-6.5712-7.4994c-.24324-.27807-.57124-.42061-.91414-.48201l-4.7834 112.38 34.275-8.5165s-12.033-93.445-12.109-94.085c-.0768-.64034-.56513-.99472-.96874-1.0338" fill="#5e8e3e" style="fill:#b12b00;stroke-width:.40923"/></g></svg>
